<svg width="58" height="58" viewBox="0 0 58 58" fill="none" xmlns="http://www.w3.org/2000/svg">
<g id="Frame" clip-path="url(#clip0_202_60)">
<path id="Vector" d="M0 29C0 12.9837 12.9837 0 29 0C45.0163 0 58 12.9837 58 29C58 45.0163 45.0163 58 29 58C12.9837 58 0 45.0163 0 29Z" fill="white"/>
<path id="Vector_2" d="M29 56.5C44.1878 56.5 56.5 44.1878 56.5 29C56.5 13.8122 44.1878 1.5 29 1.5C13.8122 1.5 1.5 13.8122 1.5 29C1.5 44.1878 13.8122 56.5 29 56.5Z" stroke="#9747FF" stroke-width="3"/>
<path id="Vector_3" fill-rule="evenodd" clip-rule="evenodd" d="M29.2218 10C26.1922 10 23.7361 12.456 23.7361 15.4857V27.8286C23.7361 30.8582 26.1922 33.3143 29.2218 33.3143C32.2515 33.3143 34.7076 30.8582 34.7076 27.8286V15.4857C34.7076 12.456 32.2515 10 29.2218 10ZM19.5 26.4569C19.5 25.7666 18.9404 25.2069 18.25 25.2069C17.5596 25.2069 17 25.7666 17 26.4569C17 32.8018 21.8351 38.0174 28.0217 38.6202V44.8855H24.4217C23.7589 44.8855 23.2217 45.4228 23.2217 46.0855C23.2217 46.7483 23.7589 47.2855 24.4217 47.2855H28.0217H30.4217H34.0217C34.6844 47.2855 35.2217 46.7483 35.2217 46.0855C35.2217 45.4228 34.6844 44.8855 34.0217 44.8855H30.4217V38.6202C36.608 38.0171 41.4429 32.8017 41.4429 26.4569C41.4429 25.7666 40.8832 25.2069 40.1929 25.2069C39.5025 25.2069 38.9429 25.7666 38.9429 26.4569C38.9429 31.8259 34.5904 36.1784 29.2214 36.1784C23.8524 36.1784 19.5 31.8259 19.5 26.4569Z" fill="#9747FF"/>
</g>
<defs>
<clipPath id="clip0_202_60">
<rect width="58" height="58" fill="white"/>
</clipPath>
</defs>
</svg>
